<?xml version="1.0" encoding="utf-8"?>
<!-- Generator: Adobe Illustrator 26.0.3, SVG Export Plug-In . SVG Version: 6.00 Build 0)  -->
<svg version="1.1" id="Layer_1" xmlns="http://www.w3.org/2000/svg" xmlns:xlink="http://www.w3.org/1999/xlink" x="0px" y="0px"
	 viewBox="0 0 512 430" style="enable-background:new 0 0 512 430;" xml:space="preserve">
 
<g>
	<path class="st0" d="M484.6,387.9c-14.5,12.4-30.2,20.4-47.2,26c-30.4,10-61.5,10.6-92.8,6.8c-35.4-4.2-68.6-15-98-35.9
		c-20.3-14.5-37.8-32-48.7-54.4c-17-35.1-44.5-59.3-76.9-79.1c-8.7-5.3-17.9-9.7-27-14.2c-29.8-14.6-55.9-33.8-75.7-60.7
		c-5-6.8-9.1-14.5-12.4-22.3c-6.2-14.7-2.7-28.2,8.8-38.6C22.3,108.7,32,103.9,41,98c15.5,40.8,44.9,67.7,75.8,92.9
		c32,26.1,64.1,52.1,90.8,83.9c7.4,8.8,13.2,18.9,19.3,28.7c24.1,38.5,54.5,70.1,98.8,84.2c15.4,4.9,32.4,5.6,48.7,6.4
		c35.5,1.8,70.9,1.1,105.9-6.2C481.3,387.7,482.4,387.9,484.6,387.9z M28.1,131.3c-3,2.5-6.2,4.1-7.9,6.7c-2.6,4.3-0.9,8.3,2.5,11.9
		c17.5,18.5,35,37,52.5,55.5c4.9,5.2,10.5,5.8,14.6,2c4.3-4,4.2-9.3-0.8-14.7c-17.6-18.8-35.2-37.5-52.9-56.1
		C34.2,134.7,31.4,133.5,28.1,131.3z"/>
	<path class="st0" d="M122.4,23.1c17-10.8,34.5-17.8,54.7-15.5c11.3,1.3,15.3,5.5,14.8,16.6c-1.7,36.8,14,62.8,45.7,81.8
		c24.7,14.8,50.3,17.3,77.5,13.5c4.2-0.6,6.4,0.2,7.6,4.4c1.3,4.6,3.1,9.1,4.9,14.5c-9.7,2.8-18.9,5.5-28.2,8.1
		c-1.6,0.4-3.1,0.9-4.7,1.3c-4.7,1.3-6.6,4.6-5.3,9c1.3,4.4,4.7,5.9,9.3,4.5c9.5-2.8,19.2-5.3,28.7-7.9c1.5-0.4,3.1-0.7,5.1-1.1
		c2.3,6.3,4.6,12.3,7.1,19.3c-7.7,1.9-15.2,3.8-22.7,5.7c-2,0.5-4.8,0.4-5.9,1.6c-2.1,2.4-5.2,6.3-4.5,8.5c0.7,2.3,5.7,5.1,8.3,4.7
		c9.8-1.5,19.3-4.3,29.5-6.7c2.2,6,4.3,11.5,6.7,18c-9.7,2.5-19,4.9-28.2,7.3c-1.3,0.3-2.7,0.6-4,1c-4.1,1.5-6.5,4.8-4.6,8.6
		c1.2,2.4,5.4,5,7.8,4.7c9.1-1.4,18-4,27-6.1c2.2-0.5,4.4-0.9,7-1.4c2.2,6,4.2,11.6,6.5,17.8c-10.5,2.5-20.5,5-30.6,7.2
		c-5.3,1.1-9.1,3.5-7.6,9.3c1.5,5.7,6.1,5.8,11.2,4.5c10.3-2.6,20.7-4.7,31-7.1c5.1,9.9,10.1,19.6,15.1,29.2
		c-6.1,1-12.7,1.8-19.1,3.2c-15.1,3.4-26.9,11.7-36.3,24c-10.3,13.5-14.3,10.5-23.8,3.1c-14-11.1-20-27-23.8-43.7
		c-5.7-24.3-7.1-49.1-4.9-73.9c3.1-34.4-22.4-58.9-56.7-54.9c-24.7,2.9-45.8-6.3-64.6-21.7c-1.2-1-2.2-3-2.2-4.6
		C148.6,67.1,146.2,59.6,122.4,23.1z"/>
	<path class="st0" d="M253.6,318c9.9,3.3,18.3,6.4,26.9,8.8c11.2,3.2,22.5,5.1,34.3,2.6c9-1.9,16.7-6,21.7-13.8
		c15.9-25.2,53.5-26.5,72.3-17.3c24.7,12.1,50,23,74.8,34.9c6.6,3.2,13,7.3,18.3,12.2c11,10.1,9.8,17.1-4,22.3
		c-9.9,3.7-20.3,6.4-30.8,8c-42.6,6.6-85.4,6.5-128.1,0.5c-7.7-1.1-15.4-3.5-22.4-6.7C291.7,358,272.5,339.3,253.6,318z"/>
	<path class="st0" d="M287.4,313.9c-18-4.5-33.4-11.6-48.3-20c-1.1-0.6-2.1-1.8-2.8-3c-15.6-26.6-37.3-47.9-60-68.1
		c-20.2-18-41.5-34.9-62.3-52.4c-0.9-0.7-1.7-1.6-3.2-3c14.8-10.6,27-23.3,34.4-40.4c13.8,10.8,28.6,19,45.6,21.8
		c8.8,1.5,18.1,2.3,26.9,1.4c27.1-2.8,44.2,13.4,41.9,40.7c-2.2,26.8-0.2,53.3,6.2,79.3C269.7,285.9,276,300.5,287.4,313.9z"/>
	<path class="st0" d="M110.6,31.3c15.3,21.6,27.3,43.9,25.8,71.2c-1.3,23.9-15.1,40-33.7,53c-1.1,0.8-4.2,0.3-5.2-0.7
		c-14.8-14.7-29-30-38.3-49c-4.7-9.5-4.9-17.5,2.9-26.3C77.1,62.3,92.2,45.4,110.6,31.3z"/>
	<path class="st0" d="M315.6,105.1c-21.2,2.9-41.6,3.2-62-6.2C264,86.8,275.2,77.5,291,75c8.6-1.4,14.4,1.8,17.5,9.9
		C310.9,91.3,313.1,97.9,315.6,105.1z"/>
</g>
</svg>
